<?xml version="1.0" standalone="no"?>
<!DOCTYPE svg PUBLIC "-//W3C//DTD SVG 20010904//EN"
 "http://www.w3.org/TR/2001/REC-SVG-20010904/DTD/svg10.dtd">
<svg version="1.0" xmlns="http://www.w3.org/2000/svg"
 width="1472.000000pt" height="832.000000pt" viewBox="0 0 1472.000000 832.000000"
 preserveAspectRatio="xMidYMid meet">

<g transform="translate(0.000000,832.000000) scale(0.100000,-0.100000)"
fill="#000000" stroke="none">
<path d="M3100 5060 c-457 -58 -780 -431 -780 -900 0 -257 132 -548 324 -714
208 -180 407 -256 671 -257 147 0 244 21 369 80 254 118 424 314 492 566 27
100 27 359 0 465 -98 381 -390 666 -766 745 -87 18 -231 25 -310 15z m229 -40
c231 -29 448 -145 592 -316 163 -194 227 -357 236 -600 8 -213 -25 -338 -133
-500 -107 -162 -274 -283 -474 -346 -66 -20 -95 -23 -245 -23 -196 0 -265 15
-408 86 -114 57 -189 113 -278 206 -116 121 -198 276 -237 447 -25 107 -21
317 7 421 89 330 337 559 671 620 94 17 163 18 269 5z"/>
<path d="M3060 4866 c-228 -49 -435 -200 -511 -371 -23 -52 -18 -72 8 -34 38
54 132 144 200 189 278 186 679 150 930 -84 159 -148 231 -300 240 -506 6
-133 -9 -215 -56 -308 -81 -160 -282 -321 -459 -367 -81 -21 -249 -21 -337 0
-107 25 -249 97 -333 170 -48 40 -123 144 -157 216 -91 194 -87 371 10 534 46
76 93 124 175 179 120 80 249 108 430 94 211 -16 403 -143 500 -330 54 -104
69 -158 77 -290 3 -60 10 -108 14 -108 12 0 29 69 29 115 0 55 -25 169 -52
235 -78 197 -259 354 -468 406 -88 23 -254 22 -345 -1 -171 -43 -339 -174
-415 -325 -30 -58 -39 -90 -50 -178 -13 -96 0 -184 43 -292 98 -250 310 -417
592 -466 218 -39 469 29 640 173 173 145 255 330 255 571 -1 207 -66 370 -215
530 -91 99 -249 193 -387 232 -95 27 -269 35 -358 16z"/>
<path d="M2950 4517 c-187 -56 -343 -210 -390 -385 -16 -63 -13 -207 6 -272
49 -166 173 -314 330 -393 60 -31 181 -57 261 -57 135 0 290 67 393 170 109
109 160 233 160 392 0 213 -125 410 -320 505 -47 23 -109 46 -138 52 -88 18
-218 13 -302 -12z m314 -33 c154 -40 286 -144 349 -274 45 -94 56 -144 57
-246 0 -177 -86 -336 -234 -433 -108 -70 -166 -86 -311 -85 -123 1 -200 19
-251 59 -17 15 -16 15 11 1 17 -8 58 -21 90 -29 210 -52 388 -7 525 132 101
102 150 223 150 366 0 142 -46 251 -150 356 -127 129 -296 180 -481 145 -118
-22 -198 -64 -284 -150 -90 -90 -130 -168 -150 -291 l-15 -90 6 73 c16 217
170 400 389 463 77 23 218 24 299 3z m-9 -194 c8 -13 -5 -13 -25 0 -13 8 -13
10 2 10 9 0 20 -4 23 -10z m66 -28 c64 -30 130 -129 128 -192 l-1 -35 -9 33
c-6 21 -15 32 -23 29 -7 -3 -25 6 -40 19 -14 14 -26 20 -26 14 0 -6 -5 -8 -10
-5 -8 5 -8 11 -1 19 8 10 5 18 -9 31 -11 10 -20 24 -20 31 0 7 -13 24 -30 37
-19 16 -25 27 -17 30 18 8 19 8 58 -11z m-138 -37 c63 -18 105 -49 150 -110
22 -31 28 -34 22 -15 -4 14 -4 22 0 17 5 -4 10 -22 12 -40 2 -17 6 -52 9 -77
3 -29 1 -58 -8 -79 l-13 -32 -2 45 c-1 41 -22 102 -23 67 0 -11 -4 -11 -18 2
-23 21 -32 13 -32 -29 0 -54 -26 -51 -86 8 -54 54 -110 141 -100 157 3 4 24 5
46 1 31 -6 40 -4 40 6 0 8 6 14 13 14 6 1 -10 12 -37 26 -37 20 -46 28 -35 35
10 6 2 9 -24 9 -22 0 -36 4 -32 9 7 12 43 8 118 -14z m-166 -307 c-3 -8 -6 -5
-6 6 -1 11 2 17 5 13 3 -3 4 -12 1 -19z m-363 -32 c6 17 9 17 19 4 7 -8 18
-15 25 -16 28 -2 32 -5 33 -21 0 -11 3 -13 6 -6 2 7 17 -10 31 -37 35 -65 102
-149 125 -156 11 -3 16 -12 13 -20 -3 -8 0 -14 6 -14 7 0 7 -4 -1 -14 -9 -10
-9 -15 0 -18 6 -2 -1 -10 -14 -17 -23 -12 -31 -11 -79 16 -60 34 -146 137
-165 200 -15 49 -26 125 -15 99 8 -19 9 -19 16 0z m48 -224 c4 -2 13 -13 20
-25 11 -22 11 -22 -10 -3 -22 19 -72 98 -72 113 0 4 12 -12 27 -37 15 -25 30
-47 35 -48z m59 -69 c13 -16 12 -17 -3 -4 -17 13 -22 21 -14 21 2 0 10 -8 17
-17z"/>
<path d="M3280 4260 c0 -5 5 -10 11 -10 5 0 7 5 4 10 -3 6 -8 10 -11 10 -2 0
-4 -4 -4 -10z"/>
<path d="M5108 4530 c-20 -41 -79 -167 -133 -280 -53 -113 -128 -271 -166
-351 -38 -81 -69 -150 -69 -155 0 -5 17 -8 38 -6 l39 4 58 124 58 124 207 0
c154 0 210 -3 217 -12 6 -7 32 -63 58 -125 l48 -111 39 -4 c22 -2 41 -1 43 2
3 6 -206 461 -332 720 l-70 145 -35 -75z m127 -280 c42 -91 79 -171 82 -177 4
-10 -34 -13 -171 -13 -97 0 -176 2 -176 4 0 3 21 49 46 103 25 54 64 136 85
182 23 49 43 81 48 75 5 -5 44 -83 86 -174z"/>
<path d="M11259 4354 c-177 -362 -289 -605 -284 -614 2 -3 20 -6 40 -6 l35 1
58 125 58 125 213 0 212 0 53 -120 53 -120 42 -6 c30 -4 41 -2 41 8 0 7 -29
75 -64 151 -35 75 -121 261 -190 412 -70 151 -131 279 -136 284 -6 6 -56 -85
-131 -240z m225 -129 l74 -160 -89 -3 c-49 -1 -129 -1 -178 0 l-89 3 91 189
c90 186 91 188 104 160 8 -16 47 -101 87 -189z"/>
<path d="M7740 4573 c-104 -18 -170 -87 -170 -178 0 -86 47 -138 190 -210 144
-73 191 -124 192 -214 0 -104 -73 -171 -188 -171 -45 0 -69 6 -109 29 l-52 29
-29 -24 -29 -24 28 -23 c78 -65 231 -82 322 -35 61 32 87 59 114 118 41 90 19
212 -50 281 -22 22 -86 63 -146 93 -144 72 -180 113 -161 183 13 50 51 73 119
73 32 0 70 -5 86 -11 25 -9 31 -7 50 16 13 14 23 30 23 34 0 17 -141 43 -190
34z"/>
<path d="M9531 4564 c-211 -56 -347 -262 -312 -471 32 -189 172 -330 361 -364
136 -24 269 16 376 113 132 122 170 330 90 504 -79 172 -315 272 -515 218z
m202 -69 c163 -42 259 -151 274 -309 20 -214 -137 -386 -352 -386 -180 0 -325
123 -356 299 -21 115 12 222 92 302 95 96 212 128 342 94z"/>
<path d="M5822 4148 l3 -413 248 -3 247 -2 0 35 0 35 -179 0 c-98 0 -193 3
-210 6 l-31 7 0 373 0 374 -40 0 -40 0 2 -412z"/>
<path d="M6620 4228 c0 -183 3 -370 7 -416 l6 -83 31 3 31 3 3 413 2 412 -40
0 -40 0 0 -332z"/>
<path d="M8322 4148 l3 -412 23 1 c12 0 29 1 37 2 13 1 15 27 15 170 0 152 2
169 18 173 9 3 87 3 172 1 85 -1 179 -3 208 -3 l52 0 0 -170 0 -170 40 0 40 0
0 410 0 410 -40 0 -40 0 0 -200 0 -200 -225 0 -225 0 0 200 0 200 -40 0 -40 0
2 -412z"/>
<path d="M10598 4113 c-3 -446 -3 -448 -26 -484 -31 -50 -63 -69 -118 -69 -39
0 -51 5 -80 34 -19 19 -34 42 -34 51 0 9 -3 15 -7 13 -5 -2 -25 -10 -45 -18
-44 -16 -46 -23 -16 -65 30 -45 76 -73 136 -85 115 -21 212 31 251 136 20 52
21 75 21 494 l0 440 -39 0 -40 0 -3 -447z"/>
<path d="M2310 4428 c-219 -456 -31 -1002 420 -1217 132 -64 260 -93 410 -94
128 0 259 19 323 49 25 12 26 14 7 9 -119 -27 -323 -11 -465 36 -180 60 -318
149 -446 288 -127 136 -212 300 -248 478 -33 162 -26 303 23 459 13 41 22 74
19 74 -2 0 -22 -37 -43 -82z"/>
<path d="M4350 3921 c0 -285 5 -335 28 -305 4 5 6 143 4 307 -3 251 -5 297
-18 297 -12 0 -14 -45 -14 -299z"/>
<path d="M6155 3566 c-50 -22 -70 -52 -70 -106 0 -60 27 -100 81 -119 125 -44
205 142 91 213 -35 22 -70 26 -102 12z m87 -27 c48 -26 54 -113 12 -160 -17
-19 -78 -26 -100 -11 -24 16 -44 59 -44 93 0 69 70 111 132 78z"/>
<path d="M6909 3497 c-18 -45 -41 -99 -51 -119 -15 -30 -16 -38 -4 -38 7 0 19
14 26 30 12 28 16 30 66 30 52 0 54 -1 69 -36 8 -19 19 -33 24 -29 11 6 -2 48
-48 148 -17 37 -31 72 -31 77 0 5 -4 11 -9 14 -5 3 -24 -31 -42 -77z m50 1
c25 -68 25 -68 -14 -68 -31 0 -36 3 -30 18 4 9 12 29 17 45 12 33 16 34 27 5z"/>
<path d="M4908 3455 c-25 -63 -42 -117 -37 -120 4 -3 18 13 29 36 21 41 22 41
63 35 23 -4 47 -13 52 -22 25 -39 34 -49 40 -43 7 8 -83 229 -94 229 -3 0 -27
-52 -53 -115z m75 15 l15 -40 -34 0 c-19 0 -34 3 -34 7 0 14 24 73 30 73 4 0
14 -18 23 -40z"/>
<path d="M5210 3455 c0 -70 4 -115 10 -115 6 0 10 23 10 50 0 49 1 50 30 50
34 0 80 38 80 65 0 31 -46 65 -90 65 l-40 0 0 -115z m90 80 c18 -22 4 -64 -25
-71 -13 -3 -29 -3 -34 1 -12 7 -15 68 -4 78 12 12 50 7 63 -8z"/>
<path d="M5396 3562 c-3 -5 -4 -31 -2 -58 3 -27 5 -75 5 -106 1 -32 6 -58 11
-58 6 0 10 25 10 55 l0 55 60 0 60 0 0 -55 c0 -30 5 -55 10 -55 6 0 10 45 10
115 0 70 -4 115 -10 115 -5 0 -10 -20 -10 -45 l0 -45 -60 0 -60 0 0 45 c0 41
-11 58 -24 37z"/>
<path d="M5674 3552 c-31 -24 -44 -55 -44 -101 0 -118 172 -161 216 -54 38 89
-13 173 -104 173 -29 0 -55 -7 -68 -18z m131 -27 c19 -18 25 -35 25 -70 0 -58
-32 -95 -82 -95 -44 0 -74 22 -88 66 -31 92 78 167 145 99z"/>
<path d="M5890 3561 c0 -6 15 -11 33 -13 l32 -3 3 -100 c4 -128 22 -153 22
-30 0 115 6 135 36 135 13 0 24 5 24 10 0 6 -32 10 -75 10 -41 0 -75 -4 -75
-9z"/>
<path d="M6419 3547 c-92 -62 -56 -207 52 -207 69 0 86 12 86 64 1 46 1 46
-33 46 -38 0 -47 -17 -11 -22 16 -2 23 -11 25 -30 3 -22 -2 -29 -22 -34 -67
-17 -126 20 -126 79 0 73 62 121 127 98 40 -15 57 -6 29 15 -30 21 -88 17
-127 -9z"/>
<path d="M6650 3455 c0 -70 4 -115 10 -115 6 0 10 23 10 51 0 49 1 50 27 47
18 -2 35 -15 50 -38 39 -61 51 -75 58 -69 3 4 -5 30 -19 58 -23 49 -24 53 -9
79 33 58 -5 102 -87 102 l-40 0 0 -115z m104 74 c19 -28 7 -61 -26 -73 -43
-15 -58 -2 -58 49 0 45 0 45 34 45 24 0 39 -7 50 -21z"/>
<path d="M7115 3550 c-9 -28 5 -220 16 -220 5 0 9 25 9 55 l0 55 33 0 c45 0
68 19 69 58 1 47 -26 72 -78 72 -34 0 -44 -4 -49 -20z m93 -12 c28 -28 1 -78
-44 -78 -22 0 -24 4 -24 45 0 43 1 45 28 45 15 0 33 -5 40 -12z"/>
<path d="M7307 3563 c-8 -16 6 -233 14 -227 5 3 9 30 9 60 l0 54 60 0 60 0 0
-55 c0 -30 5 -55 10 -55 6 0 10 45 10 115 0 70 -4 115 -10 115 -5 0 -10 -20
-10 -45 l0 -45 -37 0 c-21 0 -48 -3 -60 -6 -22 -6 -23 -3 -23 45 0 45 -11 66
-23 44z"/>
<path d="M7540 3565 c0 -3 17 -32 37 -63 27 -41 39 -72 43 -110 7 -68 24 -68
30 1 4 40 14 67 43 108 39 57 44 69 27 69 -5 0 -26 -25 -47 -55 l-36 -56 -36
55 c-20 31 -42 56 -48 56 -7 0 -13 -2 -13 -5z"/>
</g>
</svg>
